<svg width="15" height="16" viewBox="0 0 15 16" fill="none" xmlns="http://www.w3.org/2000/svg">
<path d="M12.8096 1.11604C12.8096 0.775808 12.5338 0.5 12.1936 0.5H0.616036C0.275808 0.5 0 0.775808 0 1.11604V12.6936C0 13.0338 0.275808 13.3096 0.616036 13.3096C0.956263 13.3096 1.23207 13.0338 1.23207 12.6936V1.73207H12.1936C12.5338 1.73207 12.8096 1.45626 12.8096 1.11604Z" fill="white"/>
<path d="M14.3839 2.69036H2.80639C2.46617 2.69036 2.19036 2.96617 2.19036 3.30639V14.884C2.19036 15.2242 2.46617 15.5 2.80639 15.5H14.384C14.7242 15.5 15 15.2242 15 14.884V3.30639C15 2.96617 14.7242 2.69036 14.3839 2.69036ZM3.42243 14.2679V3.92243H13.7679V14.2679H3.42243Z" fill="white"/>
<path d="M7.5 12.3709C8.52984 12.3709 9.36767 11.5331 9.36767 10.5032C9.36767 10.1972 9.36767 8.02303 9.36767 7.74514L10.3536 8.23811C10.6579 8.39018 11.0279 8.26689 11.1801 7.9626C11.3322 7.65828 11.2089 7.28824 10.9046 7.13608L9.02712 6.19736C8.61822 5.99298 8.13557 6.29053 8.13557 6.74836V8.6356H7.49997C6.47016 8.6356 5.63233 9.47344 5.63233 10.5032C5.63233 11.5331 6.47016 12.3709 7.5 12.3709ZM7.5 9.86767H8.1356V10.5032C8.1356 10.8537 7.85047 11.1388 7.5 11.1388C7.14953 11.1388 6.8644 10.8537 6.8644 10.5032C6.8644 10.1528 7.14953 9.86767 7.5 9.86767Z" fill="white"/>
</svg>
