<svg width="20" height="20" viewBox="0 0 20 20" fill="none" xmlns="http://www.w3.org/2000/svg">
<path d="M18.1348 5.11404L13.1348 1.09498C11.3184 -0.364992 8.68164 -0.364992 6.86523 1.09498L1.86475 5.11404C1.28153 5.58094 0.811028 6.17326 0.488196 6.84698C0.165363 7.52071 -0.00149847 8.25853 1.01391e-05 9.00561V14.9978C1.01391e-05 17.7517 2.24317 19.9919 4.99998 19.9919H7.99998V14.9968C7.99998 14.4664 8.2107 13.9577 8.58578 13.5826C8.96085 13.2075 9.46956 12.9968 10 12.9968C10.5304 12.9968 11.0392 13.2075 11.4142 13.5826C11.7893 13.9577 12 14.4664 12 14.9968V19.9919H15C17.7568 19.9919 20 17.7517 20 14.9978V9.00561C20.0015 8.25848 19.8346 7.52061 19.5117 6.84687C19.1888 6.17313 18.7181 5.58084 18.1348 5.11404ZM18 14.9978C17.9985 15.7925 17.6817 16.554 17.1193 17.1154C16.5568 17.6767 15.7947 17.992 15 17.992H14V14.9967C14 13.9358 13.5786 12.9184 12.8284 12.1682C12.0783 11.4181 11.0609 10.9967 10 10.9967C8.93914 10.9967 7.92173 11.4181 7.17158 12.1682C6.42144 12.9184 6.00001 13.9358 6.00001 14.9967V17.992H4.99998C4.20535 17.992 3.44317 17.6767 2.88073 17.1154C2.31829 16.554 2.00153 15.7925 1.99998 14.9978V9.00561C1.99909 8.55771 2.09916 8.11537 2.29275 7.71147C2.48634 7.30757 2.76848 6.95249 3.11818 6.67264L8.11816 2.65357C8.65313 2.22814 9.31648 1.99653 10 1.99653C10.6835 1.99653 11.3469 2.22814 11.8818 2.65357L16.8813 6.67254C17.2311 6.9523 17.5134 7.30735 17.707 7.71126C17.9007 8.11518 18.0008 8.55756 17.9999 9.00551L18 14.9978Z" fill="url(#paint0_linear_201_379)"/>
<defs>
<linearGradient id="paint0_linear_201_379" x1="20" y1="19.9919" x2="-7.22906" y2="20.7994" gradientUnits="userSpaceOnUse">
<stop stop-color="white"/>
<stop offset="1" stop-color="white"/>
</linearGradient>
</defs>
</svg>
