<svg width="15" height="16" viewBox="0 0 15 16" fill="none" xmlns="http://www.w3.org/2000/svg">
<path d="M6.875 11.75C6.875 12.095 7.155 12.375 7.5 12.375C7.845 12.375 8.125 12.095 8.125 11.75V4.25C8.125 3.905 7.845 3.625 7.5 3.625C7.155 3.625 6.875 3.905 6.875 4.25V11.75Z" fill="white"/>
<path d="M0.625 4.25C0.279999 4.25 0 4.53 0 4.875V11.125C0 11.47 0.279999 11.75 0.625 11.75C0.970001 11.75 1.25 11.47 1.25 11.125V4.875C1.25 4.53 0.970001 4.25 0.625 4.25Z" fill="white"/>
<path d="M5.9375 10.5V5.5C5.9375 5.155 5.6575 4.875 5.3125 4.875C4.9675 4.875 4.6875 5.155 4.6875 5.5V10.5C4.6875 10.845 4.9675 11.125 5.3125 11.125C5.6575 11.125 5.9375 10.845 5.9375 10.5Z" fill="white"/>
<path d="M3.125 9.875C3.47 9.875 3.75 9.595 3.75 9.25V6.75C3.75 6.405 3.47 6.125 3.125 6.125C2.78 6.125 2.5 6.405 2.5 6.75V9.25C2.5 9.595 2.78 9.875 3.125 9.875Z" fill="white"/>
<path d="M10.3125 10.5V5.5C10.3125 5.155 10.0325 4.875 9.6875 4.875C9.3425 4.875 9.0625 5.155 9.0625 5.5V10.5C9.0625 10.845 9.3425 11.125 9.6875 11.125C10.0325 11.125 10.3125 10.845 10.3125 10.5Z" fill="white"/>
<path d="M14.375 4.25C14.03 4.25 13.75 4.53 13.75 4.875V11.125C13.75 11.47 14.03 11.75 14.375 11.75C14.72 11.75 15 11.47 15 11.125V4.875C15 4.53 14.72 4.25 14.375 4.25Z" fill="white"/>
<path d="M11.875 6.125C11.53 6.125 11.25 6.405 11.25 6.75V9.25C11.25 9.595 11.53 9.875 11.875 9.875C12.22 9.875 12.5 9.595 12.5 9.25V6.75C12.5 6.405 12.22 6.125 11.875 6.125Z" fill="white"/>
<path d="M6.875 14.875C6.875 15.22 7.155 15.5 7.5 15.5C7.845 15.5 8.125 15.22 8.125 14.875V14.25C8.125 13.905 7.845 13.625 7.5 13.625C7.155 13.625 6.875 13.905 6.875 14.25V14.875Z" fill="white"/>
<path d="M7.5 2.375C7.845 2.375 8.125 2.095 8.125 1.75V1.125C8.125 0.779999 7.845 0.5 7.5 0.5C7.155 0.5 6.875 0.779999 6.875 1.125V1.75C6.875 2.095 7.155 2.375 7.5 2.375Z" fill="white"/>
</svg>
