<svg width="20" height="19" viewBox="0 0 20 19" fill="none" xmlns="http://www.w3.org/2000/svg">
<path d="M1.56204 5.67322C1.56204 7.19101 2.68997 9.04602 4.82376 11.0378C6.01044 12.1452 7.26059 13.0698 8.21503 13.718C7.89215 14.1296 7.65015 14.6077 7.51282 15.1279C6.4856 14.4394 5.08453 13.418 3.75793 12.1797C1.26434 9.85214 0 7.66296 0 5.67322C0 4.01443 0.544586 2.58606 1.57501 1.54266C2.55737 0.54779 3.9119 0 5.38925 0C7.33124 0 8.64273 0.748444 9.40109 1.37634C9.6077 1.54739 9.81491 1.74774 10.0038 1.96075C10.1884 1.754 10.3905 1.55899 10.5916 1.3913C11.3527 0.756531 12.6669 0 14.6056 0C16.0829 0 17.4374 0.54779 18.4198 1.54266C19.0686 2.19971 19.5245 3.00949 19.7736 3.93326L18.3397 4.68811C17.9713 2.80624 16.5385 1.56204 14.6056 1.56204C13.6768 1.56204 12.8487 1.77902 12.1361 2.20612C10.826 3.17749 10.0232 4.87198 10.0232 4.87198C10.0232 4.87198 9.74564 4.26102 9.23065 3.56262C9.23279 3.57162 9.23462 3.57712 9.23462 3.57712C9.23264 3.57147 9.23035 3.56522 9.22775 3.55865C8.91907 3.14056 8.52539 2.69165 8.05512 2.32361C7.435 1.91193 6.55762 1.56204 5.38925 1.56204C3.13583 1.56204 1.56204 3.25272 1.56204 5.67322ZM20 14.3712C20 14.4131 19.9957 14.4539 19.9895 14.494C19.9925 14.5439 19.9948 14.594 19.9948 14.6446C19.9948 15.9366 18.9436 16.9878 17.6517 16.9878C16.3596 16.9878 15.3085 15.9366 15.3085 14.6446C15.3085 13.3527 16.3596 12.3015 17.6517 12.3015C17.9274 12.3015 18.192 12.3497 18.438 12.4376V8.04535C17.4109 8.41263 15.7433 8.87054 13.6325 8.96469V15.8145C13.6325 15.8536 13.6287 15.8917 13.6232 15.9293C13.6267 15.9822 13.6293 16.0356 13.6293 16.0895C13.6293 17.3816 12.5781 18.4326 11.2862 18.4326C9.99405 18.4326 8.94302 17.3816 8.94302 16.0895C8.94302 14.7975 9.99405 13.7463 11.2862 13.7463C11.5611 13.7463 11.8251 13.7944 12.0705 13.8818V7.41989H12.8514C16.4359 7.41989 18.8329 6.19369 18.8567 6.18118L19.9983 5.58685L20 6.87317V14.3712ZM12.0671 16.0895C12.0671 15.6589 11.7168 15.3085 11.2862 15.3085C10.8554 15.3085 10.5051 15.6589 10.5051 16.0895C10.5051 16.5202 10.8554 16.8706 11.2862 16.8706C11.7168 16.8706 12.0671 16.5202 12.0671 16.0895ZM18.4326 14.6446C18.4326 14.2139 18.0823 13.8635 17.6517 13.8635C17.2209 13.8635 16.8706 14.2139 16.8706 14.6446C16.8706 15.0752 17.2209 15.4257 17.6517 15.4257C18.0823 15.4257 18.4326 15.0752 18.4326 14.6446Z" fill="white"/>
</svg>
