<svg width="15" height="16" viewBox="0 0 15 16" fill="none" xmlns="http://www.w3.org/2000/svg">
<path d="M14.4141 14.3282C13.0203 14.3282 12.3923 13.4818 11.785 12.6632C11.4101 12.158 11.056 11.6806 10.5404 11.4287C9.79095 11.0625 9.01595 11.0383 8.17114 11.3546C7.47969 11.6136 6.81684 12.0678 6.11497 12.5486C4.8378 13.4235 3.51725 14.3282 1.75783 14.3282C1.43464 14.3282 1.17188 14.0654 1.17188 13.7423C1.17188 13.2614 1.67302 12.7777 2.03878 12.5022C2.28071 12.662 2.56224 12.7447 2.84605 12.7447C3.14875 12.7447 3.45374 12.6511 3.71512 12.4583L6.03143 10.7492C6.29178 10.557 6.34717 10.1901 6.15502 9.92978C5.96287 9.66943 5.59609 9.61404 5.33562 9.80619L3.01932 11.5153C2.89377 11.608 2.71776 11.586 2.61889 11.4653L2.47126 11.2853C2.37329 11.1659 2.38531 10.99 2.49861 10.8848L7.5202 6.22393L8.51401 7.46105L7.5329 8.18489C7.27255 8.37704 7.21716 8.74394 7.4093 9.00429C7.60145 9.26476 7.96835 9.32015 8.22871 9.12789L9.55875 8.14655H12.2461C12.3173 8.14655 12.3879 8.13362 12.4545 8.10821C13.977 7.52902 15 6.04906 15 4.42594C15 2.26115 13.2389 0.500123 11.0742 0.500123C10.3889 0.500123 9.71405 0.679568 9.12261 1.01889C8.55521 1.34459 8.07455 1.81083 7.731 2.36781C7.7294 2.3701 7.72802 2.37239 7.72654 2.37479C7.72471 2.37788 7.72265 2.38086 7.7207 2.38406C7.71669 2.39059 7.71326 2.39745 7.70949 2.40421C7.70582 2.41061 7.70205 2.41691 7.69873 2.42355C7.6914 2.43797 7.68465 2.45273 7.67859 2.46772C7.67607 2.4739 7.67389 2.4802 7.6716 2.48649C7.66794 2.49668 7.66428 2.50686 7.66108 2.51716C7.65902 2.52391 7.6573 2.53055 7.65547 2.5373C7.65398 2.54268 7.65226 2.54795 7.65101 2.55332L7.05408 5.05765L5.49446 6.50523L5.32967 6.30701C5.12276 6.05822 4.75334 6.02434 4.50443 6.23114C4.25563 6.43805 4.22164 6.80758 4.42855 7.05638L4.63421 7.30357L1.70141 10.0259C1.26481 10.431 1.12965 11.0466 1.31494 11.5811C1.18745 11.6775 1.04268 11.7966 0.898139 11.9351C0.310595 12.4988 0 13.1236 0 13.7423C0 14.7116 0.788504 15.5001 1.75783 15.5001C3.88015 15.5001 5.48657 14.3997 6.77736 13.5152C8.20353 12.5381 9.05761 12.0084 10.0259 12.4817C10.2849 12.6082 10.5565 12.9742 10.8438 13.3616C11.5134 14.264 12.4306 15.5001 14.4141 15.5001C14.7377 15.5001 15 15.2378 15 14.9142C15 14.5905 14.7377 14.3282 14.4141 14.3282ZM11.0226 6.97478H9.68235L8.22081 5.21707L8.51939 3.96439L11.0226 6.97478ZM11.0742 1.67201C12.5927 1.67201 13.8281 2.90741 13.8281 4.42594C13.8281 5.42192 13.2787 6.34112 12.4257 6.82921L8.95953 2.66101C9.47921 2.03559 10.244 1.67201 11.0742 1.67201ZM0 4.7482C0 4.0524 0.563969 3.48843 1.25978 3.48843C1.2893 3.48843 1.3186 3.4898 1.34767 3.49186V2.02426C1.34767 1.39403 1.79559 0.843906 2.41278 0.716189C2.44287 0.709895 2.47354 0.706004 2.50433 0.704631C3.01669 0.680827 3.28391 0.602549 3.45958 0.537088C3.76285 0.424019 4.10022 0.578173 4.21329 0.881329C4.32636 1.18449 4.1722 1.52197 3.86905 1.63504C3.50489 1.77089 3.11831 1.84459 2.62278 1.87194C2.56155 1.89654 2.51955 1.95662 2.51955 2.02426V4.45603C2.51955 4.49677 2.51532 4.5366 2.50742 4.57505C2.5152 4.6317 2.51955 4.68938 2.51955 4.7482C2.51955 5.44389 1.95547 6.00798 1.25978 6.00798C0.563969 6.00798 0 5.44389 0 4.7482Z" fill="white"/>
</svg>
