<svg width="15" height="15" viewBox="0 0 15 15" fill="none" xmlns="http://www.w3.org/2000/svg">
<path d="M14.3002 0.577285C13.8555 0.201535 13.2533 0.0425349 12.6473 0.143035L6.606 1.15029C5.42475 1.34679 4.5 2.43879 4.5 3.63654V9.30429C4.05675 9.04554 3.549 8.88654 3 8.88654C1.3455 8.88654 0 10.232 0 11.8865C0 13.541 1.3455 14.8865 3 14.8865C4.6545 14.8865 6 13.541 6 11.8865V6.52179L13.5 5.27154V9.30354C13.0567 9.04554 12.5482 8.88654 12 8.88654C10.3455 8.88654 9 10.232 9 11.8865C9 13.541 10.3455 14.8865 12 14.8865C13.6545 14.8865 15 13.541 15 11.8865V2.13654C15 1.52229 14.745 0.953785 14.3002 0.577285ZM3 13.3865C2.17275 13.3865 1.5 12.7138 1.5 11.8865C1.5 11.0593 2.17275 10.3865 3 10.3865C3.82725 10.3865 4.5 11.0593 4.5 11.8865C4.5 12.7138 3.82725 13.3865 3 13.3865ZM6 5.00079V3.63654C6 3.17604 6.39825 2.70579 6.85275 2.63004L12.8932 1.62279C13.0665 1.59429 13.221 1.62879 13.3305 1.72179C13.44 1.81404 13.5 1.96179 13.5 2.13654V3.75129L6 5.00079ZM12 13.3865C11.1727 13.3865 10.5 12.7138 10.5 11.8865C10.5 11.0593 11.1727 10.3865 12 10.3865C12.8272 10.3865 13.5 11.0593 13.5 11.8865C13.5 12.7138 12.8272 13.3865 12 13.3865Z" fill="white"/>
</svg>
