<svg width="15" height="16" viewBox="0 0 15 16" fill="none" xmlns="http://www.w3.org/2000/svg">
<path fill-rule="evenodd" clip-rule="evenodd" d="M3.375 0.5C5.23896 0.5 6.75 2.01104 6.75 3.875V6.5C6.75 6.91423 6.41423 7.25 6 7.25H3.375C1.51104 7.25 0 5.73896 0 3.875C0 2.01104 1.51104 0.5 3.375 0.5ZM5.25 3.875C5.25 2.83947 4.41053 2 3.375 2C2.33947 2 1.5 2.83947 1.5 3.875C1.5 4.91053 2.33947 5.75 3.375 5.75H5.25V3.875Z" fill="white"/>
<path fill-rule="evenodd" clip-rule="evenodd" d="M11.625 0.5C9.76103 0.5 8.25 2.01104 8.25 3.875V6.5C8.25 6.91423 8.58578 7.25 9 7.25H11.625C13.489 7.25 15 5.73896 15 3.875C15 2.01104 13.489 0.5 11.625 0.5ZM9.75 3.875C9.75 2.83947 10.5895 2 11.625 2C12.6605 2 13.5 2.83947 13.5 3.875C13.5 4.91053 12.6605 5.75 11.625 5.75H9.75V3.875Z" fill="white"/>
<path fill-rule="evenodd" clip-rule="evenodd" d="M6.75 12.125C6.75 13.989 5.23896 15.5 3.375 15.5C1.51104 15.5 0 13.989 0 12.125C0 10.261 1.51104 8.75 3.375 8.75H6C6.41423 8.75 6.75 9.08578 6.75 9.5V12.125ZM3.375 14C4.41053 14 5.25 13.1605 5.25 12.125V10.25H3.375C2.33947 10.25 1.5 11.0895 1.5 12.125C1.5 13.1605 2.33947 14 3.375 14Z" fill="white"/>
<path fill-rule="evenodd" clip-rule="evenodd" d="M11.625 15.5C9.76103 15.5 8.25 13.989 8.25 12.125V9.5C8.25 9.08578 8.58578 8.75 9 8.75H11.625C13.489 8.75 15 10.261 15 12.125C15 13.989 13.489 15.5 11.625 15.5ZM9.75 12.125C9.75 13.1605 10.5895 14 11.625 14C12.6605 14 13.5 13.1605 13.5 12.125C13.5 11.0895 12.6605 10.25 11.625 10.25H9.75V12.125Z" fill="white"/>
</svg>
