<svg width="20" height="17" viewBox="0 0 20 17" fill="none" xmlns="http://www.w3.org/2000/svg">
<path d="M19.3288 2.18742L17.9269 2.18735V0.73611C17.9269 0.403856 17.6838 0.121567 17.3552 0.072409C17.2978 0.0637895 15.932 -0.134594 14.2874 0.164665C12.4539 0.498266 10.9917 1.32096 9.99997 2.56466C9.00818 1.32096 7.54597 0.498266 5.71257 0.164665C4.06786 -0.134526 2.70208 0.0637895 2.64477 0.072409C2.31615 0.121634 2.07306 0.403923 2.07306 0.73611V2.18735H0.671109C0.300538 2.18735 0 2.48789 0 2.85853V15.5053C0 15.7226 0.105185 15.9264 0.282356 16.0524C0.459527 16.1783 0.686664 16.2106 0.891849 16.1391C0.942219 16.1216 5.97136 14.4053 9.72145 16.1159C9.89842 16.1966 10.1016 16.1966 10.2786 16.1159C14.0181 14.4101 19.058 16.1218 19.1081 16.1391C19.1801 16.1641 19.2545 16.1765 19.3288 16.1765C19.4663 16.1765 19.6025 16.1342 19.7176 16.0524C19.8948 15.9265 20 15.7227 20 15.5054V2.85859C19.9999 2.48796 19.6995 2.18742 19.3288 2.18742ZM1.34229 14.6073V3.52964H2.07306V12.4674C2.07306 12.6624 2.15838 12.8476 2.30592 12.9751C2.45346 13.1025 2.64969 13.1597 2.84255 13.1312C2.87959 13.1258 5.79513 12.7256 7.92523 14.187C5.30133 13.7384 2.67521 14.2573 1.34229 14.6073ZM9.32886 13.5818C8.39068 12.7341 7.16866 12.1609 5.71257 11.896C5.01183 11.7685 4.36174 11.7313 3.84187 11.7313C3.68753 11.7313 3.54463 11.7346 3.41541 11.7398V1.3524H3.41534C4.70524 1.29422 7.84307 1.43213 9.32886 3.95085V13.5818ZM10.6711 3.95091C12.1515 1.44298 15.2943 1.2988 16.5846 1.35409V11.7398C16.0201 11.717 15.196 11.7306 14.2874 11.896C12.8313 12.1609 11.6093 12.734 10.6711 13.5818V3.95091ZM12.0725 14.1874C14.2028 12.7251 17.1199 13.1258 17.1563 13.1312C17.3496 13.1602 17.5457 13.1033 17.6937 12.9759C17.8418 12.8484 17.9269 12.6628 17.9269 12.4674V3.5297H18.6576V14.6073C17.3243 14.2572 14.6971 13.738 12.0725 14.1874Z" fill="white"/>
</svg>
