<svg width="20" height="20" viewBox="0 0 20 20" fill="none" xmlns="http://www.w3.org/2000/svg">
<path d="M19.6667 18.1111L15.8889 14.3333C17.1111 12.7778 17.7778 10.8889 17.7778 8.88889C17.7778 4 13.7778 0 8.88889 0C4 0 0 4 0 8.88889C0 13.7778 4 17.7778 8.88889 17.7778C10.8889 17.7778 12.7778 17.1111 14.3333 15.8889L18.1111 19.6667C18.5556 20.1111 19.2222 20.1111 19.6667 19.6667C20.1111 19.2222 20.1111 18.5556 19.6667 18.1111ZM2.22222 8.88889C2.22222 5.22222 5.22222 2.22222 8.88889 2.22222C12.5556 2.22222 15.5556 5.22222 15.5556 8.88889C15.5556 12.5556 12.5556 15.5556 8.88889 15.5556C5.22222 15.5556 2.22222 12.5556 2.22222 8.88889Z" fill="#F5EEFF"/>
</svg>
